# xmcd
#
# Track frame offsets: 
#        150
#        22473
#        36809
#        52829
#        70005
#        88495
#        105540
#        123527
#        140865
#        156063
#        175076
#        194158
#        214809
#
# Disc length: 3075 seconds
#
# Revision: 0
# Processed by: cddbd v1.5.2PL0 Copyright (c) Steve Scherf et al.
# Submitted via: ExactAudioCopyFreeDBPlugin 1.0
#
DISCID=c60c010d
DTITLE=Tumbleweed Country Union - Every man is a Kind of a Cowboy
DYEAR=2014
DGENRE=Country
TTITLE0=Take a Ride to Nashville
TTITLE1=Dusty Streets of Nashville
TTITLE2=Every man is a Kind of a Cowboy
TTITLE3=Song about Friendship
TTITLE4=Loving Arms
TTITLE5=Sweet Ellie
TTITLE6=Valley Girl
TTITLE7=Rollin'
TTITLE8=Old Cisco
TTITLE9=Sex, Drugs and a Country Song
TTITLE10=Westward, Ho!
TTITLE11=Let me Be
TTITLE12=Linedancer's Anthem
EXTD=
EXTT0=
EXTT1=
EXTT2=
EXTT3=
EXTT4=
EXTT5=
EXTT6=
EXTT7=
EXTT8=
EXTT9=
EXTT10=
EXTT11=
EXTT12=
PLAYORDER=
